<svg width="35" height="35" viewBox="0 0 35 35" fill="none" xmlns="http://www.w3.org/2000/svg">
<g id="shopping-cart (3) 1">
<path id="Vector" fill-rule="evenodd" clip-rule="evenodd" d="M18.5499 14.2595H25.7194L25.4854 16.9063H18.7838L18.5499 14.2595ZM24.9517 22.4101L25.3618 18.303H18.9073L19.2047 22.4101H24.9517ZM31.9673 18.303H26.7674L26.3572 22.4101H28.3038C28.9591 22.4132 29.5989 22.2103 30.1326 21.83C30.6664 21.4497 31.0671 20.9114 31.2783 20.2909L31.9673 18.3034L31.9673 18.303ZM33.3723 14.2595L32.4532 16.9063H26.8909L27.1248 14.2595H33.3723ZM27.5822 8.75584H34.3025C34.3796 8.75687 34.4561 8.77006 34.5291 8.79494C34.6158 8.8249 34.6958 8.87166 34.7645 8.93254C34.8331 8.99342 34.8891 9.06723 34.9293 9.14975C34.9694 9.23228 34.9929 9.3219 34.9984 9.4135C35.0039 9.5051 34.9913 9.59689 34.9613 9.68361L33.8582 12.8582H27.2478L27.5819 8.75604L27.5822 8.75584ZM18.056 8.75584H26.1771L25.8435 12.8579H18.4264L18.0557 8.75584H18.056ZM9.65613 12.8582L7.04077 5.32762C6.92577 4.98081 6.70317 4.6797 6.40532 4.46806C6.10748 4.25641 5.7499 4.14526 5.38456 4.15074H0.699824C0.608114 4.15074 0.517303 4.13268 0.432574 4.09758C0.347845 4.06249 0.270858 4.01105 0.20601 3.9462C0.141161 3.88135 0.0897201 3.80436 0.0546243 3.71963C0.0195284 3.6349 0.00146484 3.54409 0.00146484 3.45238C0.00146484 3.36067 0.0195284 3.26986 0.0546243 3.18513C0.0897201 3.1004 0.141161 3.02342 0.20601 2.95857C0.270858 2.89372 0.347845 2.84228 0.432574 2.80718C0.517303 2.77209 0.608114 2.75402 0.699824 2.75402H5.38456C6.04046 2.74833 6.68134 2.95029 7.21547 3.331C7.7496 3.71171 8.14959 4.25164 8.35819 4.87351L9.71171 8.76561C9.75642 8.7598 9.80143 8.75654 9.84651 8.75584H16.6507L17.0212 12.8582H9.65613ZM11.0611 16.9065L10.1425 14.2595H17.145L17.3783 16.9063L11.0611 16.9065ZM18.2813 27.3326C18.8512 27.3311 19.4041 27.5273 19.8455 27.8878C20.2869 28.2483 20.5897 28.7507 20.7021 29.3095C20.8145 29.8682 20.7296 30.4486 20.462 30.9518C20.1943 31.455 19.7604 31.8497 19.2342 32.0687C18.708 32.2878 18.1222 32.3175 17.5765 32.1529C17.0309 31.9883 16.5592 31.6395 16.242 31.166C15.9247 30.6926 15.7815 30.1237 15.8368 29.5565C15.892 28.9892 16.1423 28.4587 16.545 28.0553C16.7727 27.8266 17.0432 27.645 17.3412 27.521C17.6391 27.397 17.9586 27.333 18.2813 27.3326ZM28.5991 27.3423C29.1638 27.3442 29.7104 27.5418 30.1458 27.9014C30.5812 28.261 30.8785 28.7604 30.9871 29.3146C31.0957 29.8687 31.0089 30.4434 30.7414 30.9407C30.4739 31.4381 30.0423 31.8273 29.5201 32.0422C28.9979 32.2571 28.4174 32.2844 27.8773 32.1193C27.3373 31.9543 26.8711 31.6072 26.5582 31.1371C26.2453 30.667 26.105 30.103 26.1612 29.5411C26.2175 28.9792 26.4667 28.4541 26.8665 28.0553C27.3269 27.5977 27.95 27.3413 28.5991 27.3423ZM16.0179 22.4101C15.9915 22.4149 15.9637 22.4198 15.9354 22.4247C15.5556 22.4839 15.2092 22.676 14.9578 22.9667C14.7592 23.2002 14.6314 23.4856 14.5895 23.7892C14.5475 24.0929 14.5932 24.4022 14.7211 24.6807C14.849 24.9593 15.0538 25.1956 15.3114 25.3617C15.569 25.5278 15.8687 25.6169 16.1752 25.6185H31.7163C31.9015 25.6185 32.0791 25.692 32.2101 25.823C32.341 25.954 32.4146 26.1316 32.4146 26.3168C32.4146 26.502 32.341 26.6797 32.2101 26.8106C32.0791 26.9416 31.9015 27.0152 31.7163 27.0152H16.1751C15.6058 27.0161 15.0481 26.855 14.567 26.5507C14.0859 26.2464 13.7014 25.8114 13.4584 25.2967C13.2153 24.7819 13.1238 24.2086 13.1945 23.6438C13.2653 23.079 13.4953 22.5459 13.8577 22.107C13.6905 22.029 13.5308 21.9359 13.3806 21.8286C12.8475 21.4486 12.4474 20.9105 12.2369 20.2905L11.5478 18.303H17.5019L17.7998 22.41L16.0179 22.4101Z" fill="url(#paint0_linear_223_2452)"/>
</g>
<defs>
<linearGradient id="paint0_linear_223_2452" x1="9.81609" y1="21.3459" x2="30.6344" y2="5.71282" gradientUnits="userSpaceOnUse">
<stop stop-color="#EF3E3D"/>
<stop offset="1" stop-color="#FFCB27"/>
</linearGradient>
</defs>
</svg>
