<svg width="30" height="30" viewBox="0 0 30 30" fill="none" xmlns="http://www.w3.org/2000/svg">
<g id="shopping-bag 1" clip-path="url(#clip0_74_56)">
<path id="Vector" d="M28.8999 15.7864H25.4192C25.3125 14.4084 24.2919 13.2808 22.9605 13.0031V7.18564C22.9605 6.86203 22.6982 6.59971 22.3746 6.59971H18.7642V5.14752C18.7641 2.30912 16.4438 0 13.5915 0C12.9385 0 12.3134 0.121055 11.7376 0.341777C11.1618 0.121055 10.5366 0 9.88361 0C7.03139 0 4.71102 2.30912 4.71102 5.14752V6.59971H1.10059C0.776973 6.59971 0.514648 6.86203 0.514648 7.18564V27.2211C0.514648 28.7534 1.76305 30 3.2975 30H26.6063C28.1941 30 29.4859 28.7082 29.4859 27.1205V16.3723C29.4859 16.0487 29.2235 15.7864 28.8999 15.7864ZM24.2415 15.7864H20.4018C20.521 14.8422 21.3365 14.1093 22.3217 14.1093C23.3068 14.1093 24.1223 14.8422 24.2415 15.7864ZM21.7886 7.77158V12.9829C20.4058 13.2216 19.3336 14.3721 19.2241 15.7864H15.7615C15.438 15.7864 15.1756 16.0488 15.1756 16.3723V27.1205C15.1756 27.7593 15.3846 28.3501 15.7379 28.8282H5.2969V7.77158H8.41889V10.7766C8.41889 11.1002 8.68127 11.3626 9.00482 11.3626C9.32844 11.3626 9.59076 11.1002 9.59076 10.7766V7.77158H17.5923V10.7766C17.5923 11.1002 17.8546 11.3626 18.1782 11.3626C18.5018 11.3626 18.7641 11.1002 18.7641 10.7766V7.77158H21.7886ZM11.7376 1.6251C13.0127 2.29049 13.8843 3.61975 13.8843 5.14752V6.59971H9.59082V5.14752C9.59082 3.61975 10.4625 2.29049 11.7376 1.6251ZM13.5915 1.17188C15.7975 1.17188 17.5923 2.95535 17.5923 5.14752V6.59971H15.0562V5.14752C15.0562 3.55928 14.3296 2.13674 13.1899 1.1918C13.3221 1.17861 13.456 1.17188 13.5915 1.17188ZM9.88361 1.17188C10.0191 1.17188 10.1531 1.17861 10.2852 1.19174C9.14551 2.13674 8.41894 3.55922 8.41894 5.14746V6.59965H5.88289V5.14752C5.88283 2.95535 7.67756 1.17188 9.88361 1.17188ZM1.68652 27.2211V7.77158H4.12502V28.8281H3.2975C2.40922 28.8281 1.68652 28.1072 1.68652 27.2211ZM28.314 27.1205C28.314 28.062 27.5479 28.8281 26.6063 28.8281H18.055C17.1135 28.8281 16.3474 28.0621 16.3474 27.1205V16.9583H19.2149V19.2739C19.2149 19.5974 19.4773 19.8598 19.8008 19.8598C20.1244 19.8598 20.3868 19.5974 20.3868 19.2739V16.9583H24.2566V19.2739C24.2566 19.5974 24.5189 19.8598 24.8425 19.8598C25.1661 19.8598 25.4285 19.5974 25.4285 19.2739V16.9583H28.314V27.1205Z" fill="#EF8A2D"/>
</g>
<defs>
<clipPath id="clip0_74_56">
<rect width="30" height="30" fill="white"/>
</clipPath>
</defs>
</svg>
